G04*
G04 #@! TF.GenerationSoftware,Altium Limited,Altium Designer,22.1.2 (22)*
G04*
G04 Layer_Color=65535*
%FSLAX25Y25*%
%MOIN*%
G70*
G04*
G04 #@! TF.SameCoordinates,2E8BF825-4B60-4EFC-865E-135B437BFAC4*
G04*
G04*
G04 #@! TF.FilePolarity,Positive*
G04*
G01*
G75*
%ADD10C,0.00984*%
%ADD11C,0.00787*%
%ADD12C,0.02362*%
%ADD13C,0.01000*%
D10*
X231496Y387224D02*
G03*
X231496Y387224I-492J0D01*
G01*
X142992Y274996D02*
G03*
X142992Y274996I-492J0D01*
G01*
X220492Y321118D02*
G03*
X220492Y321118I-492J0D01*
G01*
X176492D02*
G03*
X176492Y321118I-492J0D01*
G01*
X130492Y262071D02*
G03*
X130492Y262071I-492J0D01*
G01*
X190854Y345500D02*
G03*
X190854Y345500I-492J0D01*
G01*
D11*
X232500Y321276D02*
G03*
X237500Y321276I2500J0D01*
G01*
X188500Y321079D02*
G03*
X193500Y321079I2500J0D01*
G01*
X191437Y371280D02*
Y389783D01*
X233563Y371280D02*
Y389783D01*
X191437D02*
X233563D01*
X191437Y371280D02*
X233563D01*
X191437Y373248D02*
X233563D01*
X126000Y360500D02*
X134000D01*
X126000D02*
Y384500D01*
X134000D01*
Y360500D02*
Y384500D01*
X130000Y356500D02*
Y360500D01*
Y384500D02*
Y388500D01*
X174000Y360500D02*
X182000D01*
X174000D02*
Y384500D01*
X182000D01*
Y360500D02*
Y384500D01*
X178000Y356500D02*
Y360500D01*
Y384500D02*
Y388500D01*
X124390Y299996D02*
Y334740D01*
Y277260D02*
Y284445D01*
X150276Y277260D02*
X160610D01*
X124390D02*
X134724D01*
X160610D02*
Y334740D01*
X124390D02*
X160610D01*
X224567Y280724D02*
Y321276D01*
X245433Y280724D02*
Y321276D01*
X224567D02*
X232500D01*
X237500D02*
X245433D01*
X224567Y280724D02*
X245433D01*
X180567Y280921D02*
Y321079D01*
X201433Y280921D02*
Y321079D01*
X180567D02*
X188500D01*
X193500D02*
X201433D01*
X180567Y280921D02*
X201433D01*
X160000Y251000D02*
Y266000D01*
X205000D01*
Y251000D02*
Y266000D01*
X160000Y251000D02*
X205000D01*
X124488Y248488D02*
X145512D01*
X124488Y259512D02*
X145512D01*
Y248488D02*
Y259512D01*
X124488Y248488D02*
Y259512D01*
X244500Y346000D02*
X254500D01*
X244500D02*
Y366000D01*
X254500D01*
Y346000D02*
Y366000D01*
X157500Y360500D02*
X165500D01*
X157500D02*
Y384500D01*
X165500D01*
Y360500D02*
Y384500D01*
X161500Y356500D02*
Y360500D01*
Y384500D02*
Y388500D01*
X192921Y354004D02*
X233079D01*
X192921Y355972D02*
X233079D01*
X192921Y337469D02*
X233079D01*
Y355972D01*
X192921Y337469D02*
Y355972D01*
X142000Y360500D02*
X150000D01*
X142000D02*
Y384500D01*
X150000D01*
Y360500D02*
Y384500D01*
X146000Y356500D02*
Y360500D01*
Y384500D02*
Y388500D01*
D12*
X229685Y317339D02*
G03*
X229685Y317339I-1181J0D01*
G01*
X185685Y317142D02*
G03*
X185685Y317142I-1181J0D01*
G01*
D13*
X217600Y331098D02*
Y326100D01*
X218600Y325100D01*
X220599D01*
X221599Y326100D01*
Y331098D01*
X227597Y325100D02*
X223598D01*
X227597Y329099D01*
Y330098D01*
X226597Y331098D01*
X224598D01*
X223598Y330098D01*
X190400Y366098D02*
Y361100D01*
X191400Y360100D01*
X193399D01*
X194399Y361100D01*
Y366098D01*
X196398Y365098D02*
X197398Y366098D01*
X199397D01*
X200397Y365098D01*
Y364099D01*
X199397Y363099D01*
X198397D01*
X199397D01*
X200397Y362099D01*
Y361100D01*
X199397Y360100D01*
X197398D01*
X196398Y361100D01*
X172800Y331198D02*
Y326200D01*
X173800Y325200D01*
X175799D01*
X176799Y326200D01*
Y331198D01*
X178798Y325200D02*
X180797D01*
X179798D01*
Y331198D01*
X178798Y330198D01*
X174600Y398700D02*
Y404698D01*
X177599D01*
X178599Y403698D01*
Y401699D01*
X177599Y400699D01*
X174600D01*
X176599D02*
X178599Y398700D01*
X183597D02*
Y404698D01*
X180598Y401699D01*
X184597D01*
X158100Y398700D02*
Y404698D01*
X161099D01*
X162099Y403698D01*
Y401699D01*
X161099Y400699D01*
X158100D01*
X160099D02*
X162099Y398700D01*
X164098Y403698D02*
X165098Y404698D01*
X167097D01*
X168097Y403698D01*
Y402699D01*
X167097Y401699D01*
X166097D01*
X167097D01*
X168097Y400699D01*
Y399700D01*
X167097Y398700D01*
X165098D01*
X164098Y399700D01*
X142600Y398700D02*
Y404698D01*
X145599D01*
X146599Y403698D01*
Y401699D01*
X145599Y400699D01*
X142600D01*
X144599D02*
X146599Y398700D01*
X152597D02*
X148598D01*
X152597Y402699D01*
Y403698D01*
X151597Y404698D01*
X149598D01*
X148598Y403698D01*
X126600Y398700D02*
Y404698D01*
X129599D01*
X130599Y403698D01*
Y401699D01*
X129599Y400699D01*
X126600D01*
X128599D02*
X130599Y398700D01*
X132598D02*
X134597D01*
X133598D01*
Y404698D01*
X132598Y403698D01*
X195999Y394200D02*
Y398198D01*
X194999Y399198D01*
X193000D01*
X192000Y398198D01*
Y394200D01*
X193000Y393200D01*
X194999D01*
X193999Y395199D02*
X195999Y393200D01*
X194999D02*
X195999Y394200D01*
X197998Y393200D02*
X199997D01*
X198998D01*
Y399198D01*
X197998Y398198D01*
X245100Y369400D02*
Y375398D01*
X248099D01*
X249099Y374398D01*
Y372399D01*
X248099Y371399D01*
X245100D01*
X251098Y369400D02*
X253097D01*
X252098D01*
Y375398D01*
X251098Y374398D01*
X125100Y266100D02*
Y272098D01*
X127099Y270099D01*
X129099Y272098D01*
Y266100D01*
X131098Y272098D02*
Y266100D01*
Y268099D01*
X135097Y272098D01*
X132098Y269099D01*
X135097Y266100D01*
X137096D02*
X139095D01*
X138096D01*
Y272098D01*
X137096Y271098D01*
X125099Y344498D02*
X123099D01*
X124099D01*
Y339500D01*
X123099Y338500D01*
X122100D01*
X121100Y339500D01*
X127098Y338500D02*
X129097D01*
X128098D01*
Y344498D01*
X127098Y343498D01*
X164599Y274398D02*
X163599Y275398D01*
X161600D01*
X160600Y274398D01*
Y270400D01*
X161600Y269400D01*
X163599D01*
X164599Y270400D01*
X166598Y269400D02*
X168597D01*
X167598D01*
Y275398D01*
X166598Y274398D01*
M02*
