M48
;Layer_Color=9474304
;FILE_FORMAT=2:4
INCH,TZ
;TYPE=PLATED
T1F00S00C0.0276
T2F00S00C0.0335
T3F00S00C0.0354
T4F00S00C0.0394
%
T01
X16750Y25850
X19750
T02
X13000Y35250
X14600
Y39250
X13000
X16150
X17800
Y35250
X16150
T03
X17600Y28600
Y29600
Y30600
X20600
Y29600
Y28600
X22000
Y29600
Y30600
X25000
Y29600
Y28600
X14000Y25400
X13000
X17600Y31600
X20600
X22000
X25000
X24950Y35100
Y36100
T04
X20300Y34550
X21300
X22300
X22250Y38250
X21250
X20250
M30
