G04*
G04 #@! TF.GenerationSoftware,Altium Limited,Altium Designer,22.1.2 (22)*
G04*
G04 Layer_Physical_Order=2*
G04 Layer_Color=16711680*
%FSLAX25Y25*%
%MOIN*%
G70*
G04*
G04 #@! TF.SameCoordinates,2E8BF825-4B60-4EFC-865E-135B437BFAC4*
G04*
G04*
G04 #@! TF.FilePolarity,Positive*
G04*
G01*
G75*
%ADD13C,0.01000*%
G04:AMPARAMS|DCode=17|XSize=125.98mil|YSize=62.99mil|CornerRadius=31.5mil|HoleSize=0mil|Usage=FLASHONLY|Rotation=0.000|XOffset=0mil|YOffset=0mil|HoleType=Round|Shape=RoundedRectangle|*
%AMROUNDEDRECTD17*
21,1,0.12598,0.00000,0,0,0.0*
21,1,0.06299,0.06299,0,0,0.0*
1,1,0.06299,0.03150,0.00000*
1,1,0.06299,-0.03150,0.00000*
1,1,0.06299,-0.03150,0.00000*
1,1,0.06299,0.03150,0.00000*
%
%ADD17ROUNDEDRECTD17*%
%ADD18R,0.12598X0.06299*%
G04:AMPARAMS|DCode=19|XSize=62.99mil|YSize=125.98mil|CornerRadius=31.5mil|HoleSize=0mil|Usage=FLASHONLY|Rotation=0.000|XOffset=0mil|YOffset=0mil|HoleType=Round|Shape=RoundedRectangle|*
%AMROUNDEDRECTD19*
21,1,0.06299,0.06299,0,0,0.0*
21,1,0.00000,0.12598,0,0,0.0*
1,1,0.06299,0.00000,-0.03150*
1,1,0.06299,0.00000,-0.03150*
1,1,0.06299,0.00000,0.03150*
1,1,0.06299,0.00000,0.03150*
%
%ADD19ROUNDEDRECTD19*%
%ADD26C,0.06299*%
%ADD27R,0.06299X0.06299*%
%ADD28C,0.05512*%
%ADD29R,0.05906X0.05906*%
%ADD30C,0.05906*%
%ADD31C,0.04724*%
%ADD32R,0.05906X0.05906*%
%ADD33C,0.06299*%
%ADD34R,0.06299X0.06299*%
D13*
X144300Y280410D02*
Y289700D01*
X213000Y345500D02*
X218100Y340400D01*
X238900D01*
X249500Y351000D01*
X176000Y286000D02*
X180500Y281500D01*
X215500D01*
X220000Y286000D01*
X142500Y304032D02*
X167968D01*
X176000Y296000D01*
X135807Y304032D02*
X142500D01*
X123996Y292221D02*
X135807Y304032D01*
X193200Y262800D02*
X197500Y258500D01*
X148800Y262800D02*
X193200D01*
X140000Y254000D02*
X148800Y262800D01*
X176000Y316000D02*
X178815Y313185D01*
X180000D01*
X191685Y301500D01*
X244500D01*
X250000Y296000D01*
X234000Y361000D02*
X249500D01*
X212500Y382500D02*
X234000Y361000D01*
X142500Y280410D02*
X144300D01*
Y289700D02*
X145600Y291000D01*
X178000D01*
X180500Y293500D01*
Y309000D01*
X178500Y311000D02*
X180500Y309000D01*
X172500Y311000D02*
X178500D01*
X171500Y312000D02*
X172500Y311000D01*
X171500Y312000D02*
Y326200D01*
X176000Y330700D01*
X191300D01*
X206000Y316000D01*
X140000Y382500D02*
X202500D01*
X130000Y392500D02*
X140000Y382500D01*
D17*
X142500Y304032D02*
D03*
D18*
Y280410D02*
D03*
D19*
X123996Y292221D02*
D03*
D26*
X202500Y382500D02*
D03*
X212500D02*
D03*
D27*
X222500D02*
D03*
D28*
X130000Y352500D02*
D03*
Y392500D02*
D03*
X178000Y352500D02*
D03*
Y392500D02*
D03*
X161500Y352500D02*
D03*
Y392500D02*
D03*
X146000Y352500D02*
D03*
Y392500D02*
D03*
D29*
X220000Y316000D02*
D03*
X176000D02*
D03*
X130000Y254000D02*
D03*
D30*
X220000Y306000D02*
D03*
Y296000D02*
D03*
Y286000D02*
D03*
X250000Y316000D02*
D03*
Y306000D02*
D03*
Y296000D02*
D03*
Y286000D02*
D03*
X176000Y306000D02*
D03*
Y296000D02*
D03*
Y286000D02*
D03*
X206000Y316000D02*
D03*
Y306000D02*
D03*
Y296000D02*
D03*
Y286000D02*
D03*
X140000Y254000D02*
D03*
X249500Y351000D02*
D03*
D31*
X167500Y258500D02*
D03*
X197500D02*
D03*
D32*
X249500Y361000D02*
D03*
D33*
X223000Y345500D02*
D03*
X213000D02*
D03*
D34*
X203000D02*
D03*
M02*
