G04*
G04 #@! TF.GenerationSoftware,Altium Limited,Altium Designer,22.1.2 (22)*
G04*
G04 Layer_Color=16711935*
%FSLAX25Y25*%
%MOIN*%
G70*
G04*
G04 #@! TF.SameCoordinates,2E8BF825-4B60-4EFC-865E-135B437BFAC4*
G04*
G04*
G04 #@! TF.FilePolarity,Negative*
G04*
G01*
G75*
%ADD14C,0.07099*%
%ADD15R,0.07099X0.07099*%
%ADD16C,0.06312*%
G04:AMPARAMS|DCode=17|XSize=125.98mil|YSize=62.99mil|CornerRadius=31.5mil|HoleSize=0mil|Usage=FLASHONLY|Rotation=0.000|XOffset=0mil|YOffset=0mil|HoleType=Round|Shape=RoundedRectangle|*
%AMROUNDEDRECTD17*
21,1,0.12598,0.00000,0,0,0.0*
21,1,0.06299,0.06299,0,0,0.0*
1,1,0.06299,0.03150,0.00000*
1,1,0.06299,-0.03150,0.00000*
1,1,0.06299,-0.03150,0.00000*
1,1,0.06299,0.03150,0.00000*
%
%ADD17ROUNDEDRECTD17*%
%ADD18R,0.12598X0.06299*%
G04:AMPARAMS|DCode=19|XSize=62.99mil|YSize=125.98mil|CornerRadius=31.5mil|HoleSize=0mil|Usage=FLASHONLY|Rotation=0.000|XOffset=0mil|YOffset=0mil|HoleType=Round|Shape=RoundedRectangle|*
%AMROUNDEDRECTD19*
21,1,0.06299,0.06299,0,0,0.0*
21,1,0.00000,0.12598,0,0,0.0*
1,1,0.06299,0.00000,-0.03150*
1,1,0.06299,0.00000,-0.03150*
1,1,0.06299,0.00000,0.03150*
1,1,0.06299,0.00000,0.03150*
%
%ADD19ROUNDEDRECTD19*%
%ADD20R,0.06706X0.06706*%
%ADD21C,0.06706*%
%ADD22C,0.05524*%
%ADD23R,0.06706X0.06706*%
%ADD24C,0.07099*%
%ADD25R,0.07099X0.07099*%
D14*
X202500Y382500D02*
D03*
X212500D02*
D03*
D15*
X222500D02*
D03*
D16*
X130000Y352500D02*
D03*
Y392500D02*
D03*
X178000Y352500D02*
D03*
Y392500D02*
D03*
X161500Y352500D02*
D03*
Y392500D02*
D03*
X146000Y352500D02*
D03*
Y392500D02*
D03*
D17*
X142500Y304032D02*
D03*
D18*
Y280410D02*
D03*
D19*
X123996Y292221D02*
D03*
D20*
X220000Y316000D02*
D03*
X176000D02*
D03*
X130000Y254000D02*
D03*
D21*
X220000Y306000D02*
D03*
Y296000D02*
D03*
Y286000D02*
D03*
X250000Y316000D02*
D03*
Y306000D02*
D03*
Y296000D02*
D03*
Y286000D02*
D03*
X176000Y306000D02*
D03*
Y296000D02*
D03*
Y286000D02*
D03*
X206000Y316000D02*
D03*
Y306000D02*
D03*
Y296000D02*
D03*
Y286000D02*
D03*
X140000Y254000D02*
D03*
X249500Y351000D02*
D03*
D22*
X167500Y258500D02*
D03*
X197500D02*
D03*
D23*
X249500Y361000D02*
D03*
D24*
X223000Y345500D02*
D03*
X213000D02*
D03*
D25*
X203000D02*
D03*
M02*
