G04*
G04 #@! TF.GenerationSoftware,Altium Limited,Altium Designer,22.1.2 (22)*
G04*
G04 Layer_Color=16711935*
%FSLAX25Y25*%
%MOIN*%
G70*
G04*
G04 #@! TF.SameCoordinates,2E8BF825-4B60-4EFC-865E-135B437BFAC4*
G04*
G04*
G04 #@! TF.FilePolarity,Positive*
G04*
G01*
G75*
%ADD11C,0.00787*%
%ADD36C,0.00394*%
D11*
X124390Y277260D02*
Y334740D01*
Y277260D02*
X160610D01*
Y334740D01*
X124390D02*
X160610D01*
D36*
X226339Y317732D02*
G03*
X226339Y317732I-1969J0D01*
G01*
X183520Y317437D02*
G03*
X183520Y317437I-1969J0D01*
G01*
X191437Y371280D02*
X233563D01*
X191437Y389783D02*
X233563D01*
Y371280D02*
Y389783D01*
X191437Y371280D02*
Y389783D01*
Y376398D02*
X233563D01*
X220827Y280724D02*
Y321276D01*
X249173Y280724D02*
Y321276D01*
X220827D02*
X249173D01*
X220827Y280724D02*
X249173D01*
X178008Y281020D02*
Y320980D01*
X203992Y281020D02*
Y320980D01*
X178008D02*
X203992D01*
X178008Y281020D02*
X203992D01*
X192921Y350657D02*
X233079D01*
Y337469D02*
Y355972D01*
X192921Y337469D02*
Y355972D01*
X233079D01*
X192921Y337469D02*
X233079D01*
M02*
